<svg xmlns="http://www.w3.org/2000/svg" viewBox="0 0 960 540" role="img" aria-labelledby="title desc">
  <title id="title">Cosmo Water comparison image</title>
  <desc id="desc">Stylized lower-bottle natural water server illustration.</desc>
  <defs>
    <linearGradient id="bg" x1="0" x2="1" y1="0" y2="1">
      <stop offset="0" stop-color="#d1fae5"/><stop offset="1" stop-color="#f8fafc"/>
    </linearGradient>
    <linearGradient id="accent" x1="0" x2="1" y1="0" y2="1">
      <stop offset="0" stop-color="#0f766e"/><stop offset="1" stop-color="#115e59"/>
    </linearGradient>
    <filter id="s"><feDropShadow dx="0" dy="16" stdDeviation="16" flood-color="#0c2d5a" flood-opacity=".16"/></filter>
  </defs>
  <rect width="960" height="540" rx="30" fill="url(#bg)"/>
  <rect x="120" y="88" width="720" height="360" rx="30" fill="#ffffff" opacity=".7"/>
  <g filter="url(#s)">
    <rect x="392" y="110" width="176" height="328" rx="34" fill="#ffffff"/>
    <rect x="430" y="154" width="100" height="58" rx="18" fill="url(#accent)"/>
    <rect x="420" y="304" width="120" height="98" rx="28" fill="#ccfbf1"/>
    <path d="M480 315 C506 348 523 372 523 394 C523 420 503 440 480 440 C457 440 437 420 437 394 C437 372 454 348 480 315Z" fill="#14b8a6" opacity=".8"/>
  </g>
  <text x="480" y="76" text-anchor="middle" fill="#0c2d5a" font-family="Arial, sans-serif" font-size="28" font-weight="800">Natural Water</text>
  <text x="480" y="492" text-anchor="middle" fill="#64748b" font-family="Arial, sans-serif" font-size="20" font-weight="700">Lower-bottle style</text>
</svg>
