<svg xmlns="http://www.w3.org/2000/svg" viewBox="0 0 960 540" role="img" aria-labelledby="title desc">
  <title id="title">every frecious comparison image</title>
  <desc id="desc">Stylized compact filtered water server illustration.</desc>
  <defs>
    <linearGradient id="bg" x1="0" x2="1" y1="0" y2="1">
      <stop offset="0" stop-color="#ecfeff"/><stop offset="1" stop-color="#f8fafc"/>
    </linearGradient>
    <linearGradient id="accent" x1="0" x2="1" y1="0" y2="1">
      <stop offset="0" stop-color="#0891b2"/><stop offset="1" stop-color="#0e7490"/>
    </linearGradient>
    <filter id="s"><feDropShadow dx="0" dy="16" stdDeviation="16" flood-color="#0c2d5a" flood-opacity=".15"/></filter>
  </defs>
  <rect width="960" height="540" rx="30" fill="url(#bg)"/>
  <circle cx="770" cy="118" r="108" fill="#ffffff" opacity=".55"/>
  <rect x="105" y="350" width="750" height="72" rx="24" fill="#dbeafe"/>
  <g filter="url(#s)">
    <rect x="400" y="120" width="160" height="270" rx="36" fill="#ffffff"/>
    <rect x="432" y="162" width="96" height="58" rx="18" fill="url(#accent)"/>
    <circle cx="460" cy="191" r="13" fill="#67e8f9"/>
    <circle cx="500" cy="191" r="13" fill="#a7f3d0"/>
    <rect x="420" y="264" width="120" height="88" rx="24" fill="#ecfeff"/>
    <path d="M480 280 C504 310 520 334 520 354 C520 379 502 396 480 396 C458 396 440 379 440 354 C440 334 456 310 480 280Z" fill="#0d9488" opacity=".75"/>
  </g>
  <text x="480" y="80" text-anchor="middle" fill="#0c2d5a" font-family="Arial, sans-serif" font-size="28" font-weight="800">Filtered Water</text>
  <text x="480" y="470" text-anchor="middle" fill="#64748b" font-family="Arial, sans-serif" font-size="20" font-weight="700">Bottle-free monthly plan</text>
</svg>
