<svg xmlns="http://www.w3.org/2000/svg" viewBox="0 0 960 540" role="img" aria-labelledby="title desc">
  <title id="title">Frecious comparison image</title>
  <desc id="desc">Stylized designer natural water server illustration.</desc>
  <defs>
    <linearGradient id="bg" x1="0" x2="1" y1="0" y2="1">
      <stop offset="0" stop-color="#fef3c7"/><stop offset="1" stop-color="#f8fafc"/>
    </linearGradient>
    <linearGradient id="accent" x1="0" x2="1" y1="0" y2="1">
      <stop offset="0" stop-color="#b45309"/><stop offset="1" stop-color="#92400e"/>
    </linearGradient>
    <filter id="s"><feDropShadow dx="0" dy="16" stdDeviation="16" flood-color="#0c2d5a" flood-opacity=".16"/></filter>
  </defs>
  <rect width="960" height="540" rx="30" fill="url(#bg)"/>
  <rect x="102" y="80" width="756" height="370" rx="34" fill="#ffffff" opacity=".7"/>
  <g filter="url(#s)">
    <rect x="396" y="112" width="168" height="324" rx="44" fill="#ffffff"/>
    <rect x="430" y="166" width="100" height="60" rx="22" fill="url(#accent)"/>
    <rect x="426" y="278" width="108" height="112" rx="30" fill="#fff7ed"/>
    <path d="M480 294 C506 326 522 350 522 372 C522 397 502 416 480 416 C458 416 438 397 438 372 C438 350 454 326 480 294Z" fill="#f59e0b" opacity=".72"/>
  </g>
  <text x="480" y="78" text-anchor="middle" fill="#0c2d5a" font-family="Arial, sans-serif" font-size="28" font-weight="800">Design Natural Water</text>
  <text x="480" y="492" text-anchor="middle" fill="#64748b" font-family="Arial, sans-serif" font-size="20" font-weight="700">Interior-friendly style</text>
</svg>
