<svg xmlns="http://www.w3.org/2000/svg" viewBox="0 0 1200 760" role="img" aria-labelledby="title desc">
  <title id="title">Water server comparison image</title>
  <desc id="desc">A clean kitchen scene with several stylized water server types for comparison.</desc>
  <defs>
    <linearGradient id="bg" x1="0" x2="1" y1="0" y2="1">
      <stop offset="0" stop-color="#f8fafc"/>
      <stop offset="0.45" stop-color="#e0f2fe"/>
      <stop offset="1" stop-color="#ccfbf1"/>
    </linearGradient>
    <linearGradient id="navy" x1="0" x2="1" y1="0" y2="1">
      <stop offset="0" stop-color="#174076"/>
      <stop offset="1" stop-color="#0f766e"/>
    </linearGradient>
    <linearGradient id="server" x1="0" x2="1" y1="0" y2="1">
      <stop offset="0" stop-color="#ffffff"/>
      <stop offset="1" stop-color="#e2e8f0"/>
    </linearGradient>
    <filter id="shadow" x="-20%" y="-20%" width="140%" height="150%">
      <feDropShadow dx="0" dy="18" stdDeviation="20" flood-color="#0c2d5a" flood-opacity="0.18"/>
    </filter>
  </defs>
  <rect width="1200" height="760" rx="42" fill="url(#bg)"/>
  <circle cx="1020" cy="120" r="160" fill="#ffffff" opacity=".42"/>
  <circle cx="145" cy="650" r="190" fill="#ffffff" opacity=".36"/>
  <rect x="92" y="92" width="1016" height="576" rx="36" fill="#ffffff" opacity=".7"/>
  <g filter="url(#shadow)">
    <rect x="154" y="468" width="892" height="86" rx="28" fill="#dbeafe"/>
    <rect x="194" y="512" width="812" height="92" rx="28" fill="#ffffff"/>
  </g>
  <g filter="url(#shadow)">
    <rect x="252" y="175" width="172" height="376" rx="36" fill="url(#server)"/>
    <rect x="287" y="224" width="102" height="64" rx="18" fill="#0c2d5a"/>
    <circle cx="338" cy="257" r="18" fill="#22d3ee"/>
    <rect x="302" y="333" width="72" height="15" rx="8" fill="#cbd5e1"/>
    <rect x="287" y="377" width="102" height="126" rx="28" fill="#f8fafc"/>
    <path d="M338 398 C360 430 374 454 374 475 C374 498 358 514 338 514 C318 514 302 498 302 475 C302 454 316 430 338 398Z" fill="#38bdf8" opacity=".72"/>
  </g>
  <g filter="url(#shadow)">
    <rect x="515" y="124" width="196" height="430" rx="44" fill="#ffffff"/>
    <rect x="558" y="182" width="110" height="72" rx="20" fill="url(#navy)"/>
    <circle cx="594" cy="218" r="16" fill="#67e8f9"/>
    <circle cx="636" cy="218" r="16" fill="#a7f3d0"/>
    <rect x="558" y="304" width="110" height="162" rx="32" fill="#ecfeff"/>
    <path d="M613 332 C648 374 668 409 668 437 C668 469 643 492 613 492 C583 492 558 469 558 437 C558 409 578 374 613 332Z" fill="#0d9488" opacity=".72"/>
  </g>
  <g filter="url(#shadow)">
    <rect x="788" y="257" width="166" height="290" rx="34" fill="#ffffff"/>
    <rect x="830" y="302" width="82" height="52" rx="17" fill="#0f766e"/>
    <rect x="819" y="390" width="104" height="100" rx="24" fill="#f0fdfa"/>
    <path d="M871 410 C894 438 908 461 908 480 C908 503 891 520 871 520 C851 520 834 503 834 480 C834 461 848 438 871 410Z" fill="#14b8a6" opacity=".78"/>
  </g>
  <g>
    <rect x="133" y="116" width="238" height="54" rx="27" fill="#0c2d5a" opacity=".96"/>
    <text x="252" y="151" text-anchor="middle" fill="#ffffff" font-family="Arial, sans-serif" font-size="24" font-weight="700">PRICE</text>
    <rect x="842" y="132" width="234" height="54" rx="27" fill="#0d9488" opacity=".96"/>
    <text x="959" y="167" text-anchor="middle" fill="#ffffff" font-family="Arial, sans-serif" font-size="24" font-weight="700">DESIGN</text>
    <rect x="444" y="596" width="312" height="58" rx="29" fill="#ffffff"/>
    <text x="600" y="633" text-anchor="middle" fill="#0c2d5a" font-family="Arial, sans-serif" font-size="24" font-weight="700">Compare before contract</text>
  </g>
</svg>
