<svg xmlns="http://www.w3.org/2000/svg" viewBox="0 0 960 540" role="img" aria-labelledby="title desc">
  <title id="title">OCEAN comparison image</title>
  <desc id="desc">Stylized direct-connect water server illustration.</desc>
  <defs>
    <linearGradient id="bg" x1="0" x2="1" y1="0" y2="1">
      <stop offset="0" stop-color="#ecfeff"/>
      <stop offset="1" stop-color="#f8fafc"/>
    </linearGradient>
    <linearGradient id="water" x1="0" x2="1" y1="0" y2="1">
      <stop offset="0" stop-color="#22d3ee"/>
      <stop offset="1" stop-color="#0e7490"/>
    </linearGradient>
    <filter id="shadow">
      <feDropShadow dx="0" dy="18" stdDeviation="18" flood-color="#0c4a6e" flood-opacity=".16"/>
    </filter>
  </defs>
  <rect width="960" height="540" rx="30" fill="url(#bg)"/>
  <circle cx="760" cy="116" r="110" fill="#cffafe" opacity=".5"/>
  <circle cx="180" cy="412" r="92" fill="#dbeafe" opacity=".7"/>
  <g filter="url(#shadow)">
    <rect x="357" y="122" width="246" height="288" rx="34" fill="#fff"/>
    <rect x="391" y="166" width="178" height="58" rx="19" fill="#ecfeff"/>
    <circle cx="434" cy="195" r="14" fill="#0e7490"/>
    <circle cx="480" cy="195" r="14" fill="#38bdf8"/>
    <circle cx="526" cy="195" r="14" fill="#99f6e4"/>
    <rect x="415" y="258" width="130" height="96" rx="22" fill="#f0f9ff"/>
    <path d="M480 278 C510 314 526 342 526 366 C526 394 505 414 480 414 C455 414 434 394 434 366 C434 342 450 314 480 278Z" fill="url(#water)" opacity=".86"/>
    <path d="M603 286 C683 286 740 250 802 206" fill="none" stroke="#0e7490" stroke-width="14" stroke-linecap="round" opacity=".28"/>
    <circle cx="820" cy="194" r="22" fill="#fff" stroke="#0e7490" stroke-width="10" opacity=".9"/>
  </g>
  <text x="480" y="78" text-anchor="middle" fill="#0c4a6e" font-family="Arial, sans-serif" font-size="30" font-weight="800">Direct Connect</text>
  <text x="480" y="466" text-anchor="middle" fill="#64748b" font-family="Arial, sans-serif" font-size="20" font-weight="700">No bottle storage or exchange</text>
</svg>
